<?xml version="1.0" encoding="utf-8"?>
<!-- Generator: Adobe Illustrator 15.1.0, SVG Export Plug-In . SVG Version: 6.00 Build 0)  -->
<!DOCTYPE svg PUBLIC "-//W3C//DTD SVG 1.1//EN" "http://www.w3.org/Graphics/SVG/1.1/DTD/svg11.dtd">
<svg version="1.1" id="Layer_1" xmlns="http://www.w3.org/2000/svg" xmlns:xlink="http://www.w3.org/1999/xlink" x="0px" y="0px"
	 width="921.5px" height="129px" viewBox="102.5 315.5 921.5 129" enable-background="new 102.5 315.5 921.5 129"
	 xml:space="preserve">
<g id="white">
	<g>
		<path fill="#36B457" d="M180.496,326.197h32.272c4.886,0,8.878,3.995,8.878,8.878v90.387c0,4.883-3.993,8.878-8.878,8.878h-10.549
			c5.117-11.787,7.958-24.787,7.958-38.451C210.177,368.511,198.789,343.789,180.496,326.197z"/>
		<path fill="#FFC52A" d="M172.921,326.197c19.684,16.8,32.172,41.789,32.172,69.69c0,13.732-3.035,26.758-8.449,38.451h-35.721
			c8.527-10.501,13.642-23.876,13.642-38.451c0-33.717-27.34-61.058-61.054-61.058c0.131-4.771,4.074-8.634,8.873-8.634
			L172.921,326.197L172.921,326.197z"/>
		<path fill="#F37523" d="M113.51,334.83c33.714,0,61.054,27.34,61.054,61.058c0,14.575-5.114,27.95-13.642,38.451h-38.54
			c-4.56,0-8.343-3.483-8.825-7.926c16.831-0.024,30.48-13.686,30.48-30.525c0-16.858-13.672-30.531-30.529-30.531h-0.002v-30.281
			L113.51,334.83z"/>
	</g>
	<g>
		<path fill="#FFFFFF" d="M308.822,367.847c0,6.857-2.246,12.114-6.738,15.768c-4.492,3.654-10.887,5.48-19.182,5.48h-6.828v24.571
			h-10.736V347.99h18.912c8.205,0,14.353,1.679,18.44,5.031C306.778,356.377,308.822,361.318,308.822,367.847z M276.074,380.065
			h5.705c5.51,0,9.553-0.958,12.129-2.875c2.575-1.916,3.863-4.911,3.863-8.984c0-3.772-1.153-6.588-3.459-8.444
			c-2.307-1.856-5.9-2.785-10.781-2.785h-7.457V380.065L276.074,380.065z"/>
		<path fill="#FFFFFF" d="M348.802,378.044h24.168v32.973c-3.953,1.288-7.749,2.201-11.388,2.74s-7.569,0.809-11.792,0.809
			c-9.943,0-17.609-2.942-23-8.827s-8.086-14.188-8.086-24.909c0-10.57,3.039-18.845,9.119-24.818
			c6.079-5.976,14.449-8.962,25.111-8.962c6.857,0,13.356,1.317,19.496,3.953l-3.773,8.938c-5.331-2.455-10.662-3.684-15.992-3.684
			c-7.008,0-12.549,2.2-16.621,6.604c-4.073,4.402-6.109,10.422-6.109,18.06c0,8.025,1.834,14.128,5.503,18.306
			c3.668,4.178,8.946,6.267,15.835,6.267c3.474,0,7.188-0.434,11.141-1.303v-16.936h-13.611L348.802,378.044L348.802,378.044z"/>
		<path fill="#FFFFFF" d="M466.048,380.199c0,10.843-3.01,19.13-9.028,24.864c-6.021,5.735-14.689,8.604-26.011,8.604h-18.373
			V347.99h20.305c10.45,0,18.582,2.815,24.393,8.445C463.143,362.067,466.048,369.988,466.048,380.199z M454.729,380.56
			c0-15.723-7.354-23.584-22.058-23.584h-9.299v47.662h7.637C446.821,404.638,454.729,396.612,454.729,380.56z"/>
		<path fill="#FFFFFF" d="M510.116,413.666l-2.111-6.918h-0.358c-2.396,3.025-4.808,5.084-7.232,6.178
			c-2.425,1.093-5.541,1.64-9.344,1.64c-4.883,0-8.692-1.317-11.434-3.953c-2.74-2.635-4.109-6.362-4.109-11.186
			c0-5.121,1.9-8.984,5.705-11.59c3.803-2.605,9.598-4.027,17.385-4.269l8.58-0.27v-2.65c0-3.174-0.741-5.548-2.225-7.12
			c-1.482-1.571-3.78-2.357-6.896-2.357c-2.546,0-4.986,0.375-7.322,1.123c-2.336,0.749-4.582,1.633-6.738,2.649l-3.413-7.547
			c2.694-1.407,5.645-2.478,8.85-3.212c3.204-0.733,6.229-1.101,9.074-1.101c6.317,0,11.088,1.378,14.308,4.133
			c3.219,2.756,4.829,7.083,4.829,12.981v33.467L510.116,413.666L510.116,413.666z M494.395,406.479c3.832,0,6.909-1.07,9.23-3.212
			c2.32-2.141,3.48-5.145,3.48-9.007v-4.313l-6.379,0.271c-4.972,0.18-8.588,1.011-10.849,2.493
			c-2.262,1.481-3.392,3.751-3.392,6.806c0,2.217,0.657,3.931,1.977,5.144C489.781,405.872,491.758,406.479,494.395,406.479z"/>
		<path fill="#FFFFFF" d="M550.905,406.03c2.575,0,5.149-0.403,7.727-1.213v7.951c-1.168,0.51-2.673,0.936-4.515,1.28
			c-1.842,0.344-3.751,0.517-5.729,0.517c-10.003,0-15.004-5.271-15.004-15.813v-26.773h-6.783v-4.672l7.277-3.863l3.594-10.512
			h6.515v11.051h14.149v7.996h-14.149v26.594c0,2.546,0.636,4.425,1.908,5.639C547.169,405.424,548.839,406.03,550.905,406.03z"/>
		<path fill="#FFFFFF" d="M567.931,350.821c0-1.887,0.518-3.339,1.551-4.356c1.032-1.019,2.508-1.527,4.425-1.527
			c1.855,0,3.302,0.51,4.335,1.527c1.033,1.019,1.55,2.471,1.55,4.356c0,1.797-0.517,3.212-1.55,4.245s-2.479,1.55-4.335,1.55
			c-1.917,0-3.393-0.517-4.425-1.55C568.448,354.032,567.931,352.617,567.931,350.821z M579.116,413.666H568.56v-49.684h10.558
			L579.116,413.666L579.116,413.666z"/>
		<path fill="#FFFFFF" d="M637.919,413.666h-10.602v-30.547c0-3.833-0.771-6.692-2.313-8.58c-1.543-1.887-3.991-2.829-7.345-2.829
			c-4.463,0-7.728,1.317-9.793,3.952c-2.066,2.637-3.101,7.054-3.101,13.252v24.753H594.21v-49.685h8.266l1.482,6.514h0.539
			c1.497-2.364,3.623-4.191,6.379-5.479c2.755-1.287,5.81-1.932,9.164-1.932c11.919,0,17.879,6.063,17.879,18.192V413.666
			L637.919,413.666z"/>
		<path fill="#FFFFFF" d="M694.565,363.983v5.795l-8.49,1.572c0.778,1.049,1.422,2.336,1.932,3.863
			c0.509,1.526,0.765,3.145,0.765,4.852c0,5.121-1.769,9.149-5.302,12.084c-3.534,2.937-8.399,4.402-14.6,4.402
			c-1.588,0-3.025-0.119-4.313-0.359c-2.275,1.408-3.414,3.055-3.414,4.941c0,1.139,0.531,1.992,1.596,2.561
			c1.063,0.569,3.017,0.854,5.861,0.854h8.67c5.48,0,9.644,1.168,12.488,3.504s4.269,5.705,4.269,10.106
			c0,5.63-2.321,9.974-6.964,13.027c-4.643,3.055-11.351,4.582-20.125,4.582c-6.769,0-11.935-1.198-15.498-3.594
			c-3.563-2.396-5.346-5.812-5.346-10.242c0-3.055,0.966-5.623,2.897-7.704c1.931-2.081,4.634-3.526,8.107-4.335
			c-1.408-0.599-2.567-1.564-3.48-2.897c-0.914-1.332-1.37-2.731-1.37-4.199c0-1.856,0.522-3.43,1.572-4.718
			c1.048-1.287,2.604-2.561,4.672-3.817c-2.576-1.107-4.665-2.912-6.268-5.413c-1.603-2.5-2.402-5.428-2.402-8.782
			c0-5.391,1.698-9.568,5.099-12.533c3.397-2.965,8.243-4.446,14.532-4.446c1.406,0,2.882,0.098,4.425,0.292
			c1.542,0.194,2.702,0.396,3.48,0.605L694.565,363.983L694.565,363.983z M655.528,421.394c0,2.275,1.024,4.027,3.077,5.256
			c2.051,1.229,4.934,1.842,8.646,1.842c5.75,0,10.032-0.823,12.848-2.471c2.814-1.647,4.224-3.834,4.224-6.559
			c0-2.156-0.771-3.691-2.313-4.604c-1.543-0.914-4.41-1.37-8.603-1.37h-7.996c-3.025,0-5.429,0.711-7.21,2.134
			C656.419,417.043,655.528,418.968,655.528,421.394z M660.065,380.065c0,3.115,0.801,5.511,2.402,7.188
			c1.603,1.678,3.9,2.516,6.896,2.516c6.108,0,9.164-3.264,9.164-9.793c0-3.234-0.757-5.729-2.27-7.479
			c-1.513-1.752-3.812-2.628-6.896-2.628c-3.056,0-5.368,0.869-6.94,2.605C660.852,374.211,660.065,376.74,660.065,380.065z"/>
		<path fill="#FFFFFF" d="M772.28,367.847c0,6.857-2.246,12.114-6.738,15.768c-4.492,3.654-10.887,5.48-19.182,5.48h-6.828v24.571
			h-10.736V347.99h18.912c8.205,0,14.353,1.679,18.44,5.031C770.236,356.377,772.28,361.318,772.28,367.847z M739.532,380.065h5.705
			c5.51,0,9.553-0.958,12.129-2.875c2.575-1.916,3.862-4.911,3.862-8.984c0-3.772-1.152-6.588-3.459-8.444s-5.899-2.785-10.78-2.785
			h-7.457V380.065L739.532,380.065z"/>
		<path fill="#FFFFFF" d="M809.476,363.085c2.126,0,3.878,0.149,5.257,0.448l-1.033,9.838c-1.498-0.358-3.056-0.539-4.672-0.539
			c-4.224,0-7.646,1.379-10.266,4.134c-2.621,2.756-3.931,6.334-3.931,10.735v25.965h-10.558v-49.684h8.267l1.393,8.76h0.539
			c1.646-2.965,3.796-5.314,6.446-7.053C803.568,363.953,806.421,363.085,809.476,363.085z"/>
		<path fill="#FFFFFF" d="M868.009,388.735c0,8.116-2.082,14.45-6.244,19.002c-4.163,4.553-9.958,6.828-17.385,6.828
			c-4.643,0-8.745-1.048-12.309-3.145c-3.564-2.097-6.306-5.105-8.222-9.029c-1.917-3.923-2.875-8.475-2.875-13.656
			c0-8.056,2.066-14.345,6.199-18.867c4.133-4.521,9.957-6.782,17.475-6.782c7.188,0,12.877,2.313,17.07,6.939
			S868.009,380.89,868.009,388.735z M831.847,388.735c0,11.471,4.237,17.205,12.713,17.205c8.386,0,12.578-5.734,12.578-17.205
			c0-11.35-4.223-17.024-12.668-17.024c-4.433,0-7.645,1.468-9.636,4.401C832.842,379.048,831.847,383.255,831.847,388.735z"/>
	</g>
</g>
</svg>
